<svg width="250" height="250" viewBox="0 0 250 250" fill="none" xmlns="http://www.w3.org/2000/svg">
<path d="M75.3845 189H58.1155C56.9471 189 56 189.947 56 191.115V228.885C56 230.053 56.9471 231 58.1155 231H190.885C192.053 231 193 230.053 193 228.885V191.115C193 189.947 192.053 189 190.885 189H173.615C172.447 189 171.5 189.947 171.5 191.115V207.885C171.5 209.053 170.553 210 169.385 210H79.6155C78.4471 210 77.5 209.053 77.5 207.885V191.115C77.5 189.947 76.5529 189 75.3845 189Z" fill="black"/>
<path d="M75.3845 92.5H58.1155C56.9471 92.5 56 91.5529 56 90.3845V62.6771C56 61.9452 56.3783 61.2653 57.0002 60.8794L123.385 19.692C124.068 19.2681 124.932 19.2681 125.615 19.692L192 60.8795C192.622 61.2653 193 61.9452 193 62.6771V90.3845C193 91.5529 192.053 92.5 190.885 92.5H173.615C172.447 92.5 171.5 91.5529 171.5 90.3845V74.1155C171.5 72.9471 170.553 72 169.385 72H124.5H79.6155C78.4471 72 77.5 72.9471 77.5 74.1155V90.3845C77.5 91.5529 76.5529 92.5 75.3845 92.5Z" fill="black"/>
<path d="M124.5 104H111.615C110.447 104 109.5 104.947 109.5 106.115V122.885C109.5 124.053 108.553 125 107.385 125H58.1155C56.9471 125 56 125.947 56 127.115V154.885C56 156.053 56.9471 157 58.1155 157H107.385C108.553 157 109.5 157.947 109.5 159.115V176.385C109.5 177.553 110.447 178.5 111.615 178.5H137.385C138.553 178.5 139.5 177.553 139.5 176.385V159.115C139.5 157.947 140.447 157 141.615 157H190.885C192.053 157 193 156.053 193 154.885V127.115C193 125.947 192.053 125 190.885 125H141.615C140.447 125 139.5 124.053 139.5 122.885V106.115C139.5 104.947 138.553 104 137.385 104H124.5Z" fill="black"/>
<path d="M75.3845 189H58.1155C56.9471 189 56 189.947 56 191.115V228.885C56 230.053 56.9471 231 58.1155 231H190.885C192.053 231 193 230.053 193 228.885V191.115C193 189.947 192.053 189 190.885 189H173.615C172.447 189 171.5 189.947 171.5 191.115V207.885C171.5 209.053 170.553 210 169.385 210H79.6155C78.4471 210 77.5 209.053 77.5 207.885V191.115C77.5 189.947 76.5529 189 75.3845 189Z" stroke="black" stroke-width="1.05774" stroke-linejoin="round"/>
<path d="M75.3845 92.5H58.1155C56.9471 92.5 56 91.5529 56 90.3845V62.6771C56 61.9452 56.3783 61.2653 57.0002 60.8794L123.385 19.692C124.068 19.2681 124.932 19.2681 125.615 19.692L192 60.8795C192.622 61.2653 193 61.9452 193 62.6771V90.3845C193 91.5529 192.053 92.5 190.885 92.5H173.615C172.447 92.5 171.5 91.5529 171.5 90.3845V74.1155C171.5 72.9471 170.553 72 169.385 72H124.5H79.6155C78.4471 72 77.5 72.9471 77.5 74.1155V90.3845C77.5 91.5529 76.5529 92.5 75.3845 92.5Z" stroke="black" stroke-width="1.05774" stroke-linejoin="round"/>
<path d="M124.5 104H111.615C110.447 104 109.5 104.947 109.5 106.115V122.885C109.5 124.053 108.553 125 107.385 125H58.1155C56.9471 125 56 125.947 56 127.115V154.885C56 156.053 56.9471 157 58.1155 157H107.385C108.553 157 109.5 157.947 109.5 159.115V176.385C109.5 177.553 110.447 178.5 111.615 178.5H137.385C138.553 178.5 139.5 177.553 139.5 176.385V159.115C139.5 157.947 140.447 157 141.615 157H190.885C192.053 157 193 156.053 193 154.885V127.115C193 125.947 192.053 125 190.885 125H141.615C140.447 125 139.5 124.053 139.5 122.885V106.115C139.5 104.947 138.553 104 137.385 104H124.5Z" stroke="black" stroke-width="1.05774" stroke-linejoin="round"/>
</svg>
