<svg width="250" height="250" viewBox="0 0 250 250" fill="none" xmlns="http://www.w3.org/2000/svg">
<path d="M62.5594 142.141L119.54 70.2399C122.426 66.5971 127.955 66.5971 130.842 70.2399L187.822 142.141C188.832 143.415 189.382 144.994 189.382 146.62V181.398C189.382 185.381 186.153 188.609 182.171 188.609H68.2105C64.2283 188.609 61 185.381 61 181.398V146.62C61 144.994 61.5495 143.415 62.5594 142.141Z" fill="black"/>
<path d="M71.8027 99.3805L119.708 40.5273C122.587 37.1576 127.795 37.1576 130.673 40.5273L178.579 99.3805C182.862 104.643 191.382 101.614 191.382 94.8286V88.6726C191.382 87.0143 190.81 85.4068 189.763 84.1207L130.673 11.5273C127.795 8.15758 122.587 8.15758 119.708 11.5273L60.6184 84.1207C59.5716 85.4068 59 87.0143 59 88.6726V94.8286C59 101.614 67.5191 104.643 71.8027 99.3805Z" fill="black"/>
<path d="M62.5594 142.141L119.54 70.2399C122.426 66.5971 127.955 66.5971 130.842 70.2399L187.822 142.141C188.832 143.415 189.382 144.994 189.382 146.62V181.398C189.382 185.381 186.153 188.609 182.171 188.609H68.2105C64.2283 188.609 61 185.381 61 181.398V146.62C61 144.994 61.5495 143.415 62.5594 142.141Z" stroke="black" stroke-width="3.60526" stroke-linejoin="round"/>
<path d="M71.8027 99.3805L119.708 40.5273C122.587 37.1576 127.795 37.1576 130.673 40.5273L178.579 99.3805C182.862 104.643 191.382 101.614 191.382 94.8286V88.6726C191.382 87.0143 190.81 85.4068 189.763 84.1207L130.673 11.5273C127.795 8.15758 122.587 8.15758 119.708 11.5273L60.6184 84.1207C59.5716 85.4068 59 87.0143 59 88.6726V94.8286C59 101.614 67.5191 104.643 71.8027 99.3805Z" stroke="black" stroke-width="3.60526" stroke-linejoin="round"/>
<path d="M195 237.993V212.224C195 211.056 194.053 210.109 192.885 210.109H56.1155C54.9471 210.109 54 211.056 54 212.224V237.993C54 239.162 54.9471 240.109 56.1155 240.109H192.885C194.053 240.109 195 239.162 195 237.993Z" fill="black" stroke="black" stroke-width="1.05774" stroke-linejoin="round"/>
</svg>
