<svg width="250" height="250" viewBox="0 0 250 250" fill="none" xmlns="http://www.w3.org/2000/svg">
<path d="M125.807 212.493H101.578C99.5616 212.493 98.3203 210.288 99.3664 208.564L123.595 168.629C124.602 166.968 127.012 166.968 128.019 168.629L152.248 208.564C153.294 210.288 152.052 212.493 150.036 212.493H125.807Z" fill="black" stroke="black" stroke-width="1.29367" stroke-linejoin="round"/>
<path d="M64.521 93.5659L120.925 24.7354C123.356 21.7687 127.894 21.7687 130.325 24.7354L186.729 93.5659C187.619 94.6521 188.106 96.013 188.106 97.4173L188.105 183.546C188.105 186.902 185.385 189.623 182.029 189.623H167.771C165.93 189.623 164.189 188.788 163.035 187.353L130.361 146.7C127.929 143.674 123.321 143.674 120.889 146.7L88.2149 187.353C87.0615 188.788 85.3197 189.623 83.4786 189.623H69.2205C65.8646 189.623 63.1441 186.902 63.1441 183.546L63.1445 97.4173C63.1445 96.013 63.6309 94.6521 64.521 93.5659Z" fill="black" stroke="black" stroke-width="3.0382" stroke-linejoin="round"/>
<path d="M193.684 229.033V211.581C193.684 210.495 192.804 209.614 191.717 209.614H58.967C57.8807 209.614 57 210.495 57 211.581V229.033C57 230.119 57.8807 231 58.967 231H191.717C192.804 231 193.684 230.119 193.684 229.033Z" fill="black" stroke="black" stroke-width="0.983513" stroke-linejoin="round"/>
</svg>
