<svg width="250" height="250" viewBox="0 0 250 250" fill="none" xmlns="http://www.w3.org/2000/svg">
<path d="M75.3845 228H58.1155C56.9471 228 56 227.053 56 225.885V65.677C56 64.9452 56.3783 64.2653 57.0002 63.8794L123.385 22.692C124.068 22.2681 124.932 22.2681 125.615 22.692L192 63.8795C192.622 64.2653 193 64.9452 193 65.677V225.885C193 227.053 192.053 228 190.885 228H173.615C172.447 228 171.5 227.053 171.5 225.885V101.615C171.5 100.447 170.553 99.5 169.385 99.5H124.5H79.6155C78.4471 99.5 77.5 100.447 77.5 101.615V225.885C77.5 227.053 76.5529 228 75.3845 228Z" fill="black" stroke="black" stroke-width="1.05774" stroke-linejoin="round"/>
<path d="M138.884 123H111.116C109.947 123 109 123.947 109 125.115V151.885C109 153.053 109.947 154 111.116 154H138.884C140.053 154 141 153.053 141 151.885V125.115C141 123.947 140.053 123 138.884 123Z" fill="black" stroke="black" stroke-width="1.05774" stroke-linejoin="round"/>
<path d="M138.884 186H111.116C109.947 186 109 186.947 109 188.115V214.885C109 216.053 109.947 217 111.116 217H138.884C140.053 217 141 216.053 141 214.885V188.115C141 186.947 140.053 186 138.884 186Z" fill="black" stroke="black" stroke-width="1.05774" stroke-linejoin="round"/>
</svg>
