<svg width="250" height="250" viewBox="0 0 250 250" fill="none" xmlns="http://www.w3.org/2000/svg">
<path d="M126.429 48C142.605 48 196.468 112.817 196.468 134.727C196.468 164.854 54.0522 164.854 54.0522 134.727C54.0522 114.643 109.74 48 126.429 48Z" fill="black" stroke="black" stroke-width="3.25995" stroke-linejoin="round"/>
<path d="M210.57 158.152C116.825 185.684 134.664 184.721 39.8948 158.091C37.9805 157.553 36 158.97 36 160.958V179.472C36 180.836 36.983 182.045 38.3016 182.394C136.097 208.283 116.706 207.878 212.204 182.397C213.52 182.046 214.5 180.838 214.5 179.476V161.008C214.5 159.005 212.492 157.587 210.57 158.152Z" fill="black" stroke="black" stroke-width="1.50217" stroke-linejoin="round"/>
</svg>
