<svg width="250" height="250" viewBox="0 0 250 250" fill="none" xmlns="http://www.w3.org/2000/svg">
<path fill-rule="evenodd" clip-rule="evenodd" d="M161.846 178.429L129.095 92.3249C127.579 88.3397 121.941 88.3397 120.425 92.3249L87.6737 178.429H73.2172C68.1683 178.429 64.6828 173.374 66.4777 168.655L118.211 32.647C120.568 26.451 129.333 26.451 131.69 32.647L183.424 168.655C185.219 173.374 181.733 178.429 176.684 178.429H161.846Z" fill="black"/>
<path d="M129.095 92.3249L130.78 91.684L130.78 91.684L129.095 92.3249ZM161.846 178.429L160.161 179.07C160.427 179.769 161.098 180.232 161.846 180.232V178.429ZM120.425 92.3249L118.74 91.684L118.74 91.684L120.425 92.3249ZM87.6737 178.429V180.232C88.422 180.232 89.0925 179.769 89.3586 179.07L87.6737 178.429ZM66.4777 168.655L64.7929 168.014L64.7929 168.014L66.4777 168.655ZM118.211 32.647L116.526 32.0062L116.526 32.0062L118.211 32.647ZM131.69 32.647L130.005 33.2879L130.005 33.2879L131.69 32.647ZM183.424 168.655L185.109 168.014L185.109 168.014L183.424 168.655ZM127.41 92.9658L160.161 179.07L163.531 177.788L130.78 91.684L127.41 92.9658ZM122.11 92.9658C123.037 90.5296 126.483 90.5296 127.41 92.9658L130.78 91.684C128.674 86.1498 120.845 86.1498 118.74 91.684L122.11 92.9658ZM89.3586 179.07L122.11 92.9658L118.74 91.684L85.9889 177.788L89.3586 179.07ZM87.6737 176.626H73.2172V180.232H87.6737V176.626ZM73.2172 176.626C69.4305 176.626 66.8164 172.835 68.1626 169.296L64.7929 168.014C62.5492 173.913 66.9061 180.232 73.2172 180.232V176.626ZM68.1626 169.296L119.896 33.2879L116.526 32.0062L64.7929 168.014L68.1626 169.296ZM119.896 33.2879C121.664 28.6409 128.238 28.6409 130.005 33.2879L133.375 32.0062C130.429 24.2611 119.472 24.2611 116.526 32.0062L119.896 33.2879ZM130.005 33.2879L181.739 169.296L185.109 168.014L133.375 32.0062L130.005 33.2879ZM181.739 169.296C183.085 172.835 180.471 176.626 176.684 176.626V180.232C182.995 180.232 187.352 173.913 185.109 168.014L181.739 169.296ZM176.684 176.626H161.846V180.232H176.684V176.626Z" fill="black"/>
<path d="M125 200.096H105.036C103.087 200.096 101.742 198.145 102.435 196.324L122.399 143.838C123.309 141.446 126.691 141.446 127.601 143.838L147.565 196.324C148.258 198.145 146.913 200.096 144.964 200.096H125Z" fill="black" stroke="black" stroke-width="1.3913" stroke-linejoin="round"/>
<path d="M198 218.885V200.115C198 198.947 197.053 198 195.885 198H53.1155C51.9471 198 51 198.947 51 200.115V218.885C51 220.053 51.9471 221 53.1155 221H195.885C197.053 221 198 220.053 198 218.885Z" fill="black" stroke="black" stroke-width="1.05774" stroke-linejoin="round"/>
</svg>
