<svg width="250" height="250" viewBox="0 0 250 250" fill="none" xmlns="http://www.w3.org/2000/svg">
<path d="M125.778 50C136.547 50 172.403 93.1491 172.403 107.735C172.403 127.79 77.5967 127.79 77.5967 107.735C77.5967 94.3646 114.668 50 125.778 50Z" fill="black" stroke="black" stroke-width="2.17016" stroke-linejoin="round"/>
<path d="M63.1815 127.79C73.9502 127.79 109.807 170.939 109.807 185.525C109.807 205.58 15 205.58 15 185.525C15 172.155 52.0718 127.79 63.1815 127.79Z" fill="black" stroke="black" stroke-width="2.17016" stroke-linejoin="round"/>
<path d="M188.375 127.79C199.144 127.79 235 170.939 235 185.525C235 205.58 140.193 205.58 140.193 185.525C140.193 172.155 177.265 127.79 188.375 127.79Z" fill="black" stroke="black" stroke-width="2.17016" stroke-linejoin="round"/>
</svg>
