<svg width="250" height="250" viewBox="0 0 250 250" fill="none" xmlns="http://www.w3.org/2000/svg">
<path d="M121.781 70.6347L71.3418 121.073C69.199 123.216 69.199 126.69 71.3418 128.833L121.781 179.272C123.923 181.415 127.397 181.415 129.54 179.272L179.979 128.833C182.122 126.69 182.122 123.216 179.979 121.073L129.54 70.6347C127.397 68.4919 123.923 68.4919 121.781 70.6347Z" fill="black" stroke="black" stroke-width="1.0974" stroke-linejoin="round"/>
<path d="M117.369 34.6951L35.1583 116.906C34.77 117.294 34.2502 117.522 33.7016 117.546L22.3441 118.04C20.3443 118.127 19.2814 115.711 20.6968 114.295L114.759 20.2336C116.174 18.8182 118.59 19.8811 118.503 21.8809L118.009 33.2384C117.986 33.787 117.757 34.3068 117.369 34.6951Z" fill="black" stroke="black" stroke-width="1.0974" stroke-linejoin="round"/>
<path d="M134.338 214.821L216.549 132.611C216.937 132.223 217.457 131.994 218.005 131.97L229.363 131.476C231.363 131.389 232.426 133.806 231.01 135.221L136.948 229.283C135.533 230.698 133.117 229.635 133.204 227.635L133.698 216.278C133.721 215.729 133.95 215.21 134.338 214.821Z" fill="black" stroke="black" stroke-width="1.0974" stroke-linejoin="round"/>
<path d="M215.919 116.662L133.708 34.4512C133.32 34.0629 133.091 33.5432 133.068 32.9946L132.574 21.6371C132.487 19.6373 134.903 18.5744 136.318 19.9898L230.38 114.052C231.796 115.467 230.733 117.883 228.733 117.796L217.375 117.302C216.827 117.279 216.307 117.05 215.919 116.662Z" fill="black" stroke="black" stroke-width="1.0974" stroke-linejoin="round"/>
<path d="M115.662 213.527L33.4512 131.316C33.0629 130.928 32.5432 130.7 31.9946 130.676L20.6371 130.182C18.6373 130.095 17.5744 132.511 18.9898 133.927L113.052 227.988C114.467 229.404 116.883 228.341 116.796 226.341L116.302 214.984C116.279 214.435 116.05 213.915 115.662 213.527Z" fill="black" stroke="black" stroke-width="1.0974" stroke-linejoin="round"/>
</svg>
